<?xml version="1.0" encoding="UTF-8"?>
<svg xmlns="http://www.w3.org/2000/svg" xmlns:xlink="http://www.w3.org/1999/xlink" width="150px" height="150px" viewBox="0 0 75 75" version="1.1">
<g id="surface1">
<path style="fill:none;stroke-width:5;stroke-linecap:butt;stroke-linejoin:miter;stroke:rgb(38.039216%,60.392157%,60.784314%);stroke-opacity:1;stroke-miterlimit:4;" d="M 14.375 110 L 75 5 L 135.625 110 Z M 14.375 110 " transform="matrix(0.5,0,0,0.5,0,0)"/>
<path style=" stroke:none;fill-rule:nonzero;fill:rgb(98.039216%,41.176471%,28.627451%);fill-opacity:1;" d="M 37.5 8.5 L 50.058594 30.25 L 24.941406 30.25 Z M 37.5 8.5 "/>
<path style=" stroke:none;fill-rule:evenodd;fill:rgb(38.039216%,60.392157%,60.784314%);fill-opacity:1;" d="M 41.398438 32.488281 L 38.367188 37.746094 L 38.363281 37.746094 L 37.933594 38.496094 C 37.742188 38.828125 37.257812 38.828125 37.066406 38.496094 L 36.636719 37.746094 L 36.632812 37.746094 L 33.601562 32.488281 L 35.335938 32.488281 L 37.5 36.246094 L 39.667969 32.488281 Z M 41.429688 30.988281 C 41.417969 30.988281 41.40625 30.988281 41.398438 30.988281 L 33.601562 30.988281 C 33.59375 30.988281 33.582031 30.988281 33.570312 30.988281 Z M 41.429688 30.988281 "/>
<path style="fill:none;stroke-width:4.1;stroke-linecap:square;stroke-linejoin:round;stroke:rgb(38.039216%,60.392157%,60.784314%);stroke-opacity:1;stroke-miterlimit:4;" d="M 110 67 L 82 67 " transform="matrix(0.5,0,0,0.5,0,0)"/>
<path style="fill:none;stroke-width:4.1;stroke-linecap:square;stroke-linejoin:round;stroke:rgb(38.039216%,60.392157%,60.784314%);stroke-opacity:1;stroke-miterlimit:4;" d="M 68 67 L 40 67 " transform="matrix(0.5,0,0,0.5,0,0)"/>
</g>
</svg>
