<?xml version="1.0" encoding="utf-8"?>
<!-- Generator: Adobe Illustrator 25.3.1, SVG Export Plug-In . SVG Version: 6.00 Build 0)  -->
<svg version="1.1" id="레이어_1" xmlns="http://www.w3.org/2000/svg" xmlns:xlink="http://www.w3.org/1999/xlink" x="0px"
	 y="0px" viewBox="0 0 606.33 560" style="enable-background:new 0 0 606.33 560;" xml:space="preserve">
<style type="text/css">
	.st0{fill:#A4BFBA;}
	.st1{fill:#BABEA3;}
	.st2{fill:#66818A;}
	.st3{fill:#576F70;}
</style>
<g>
	<path class="st0" d="M140.09,377.22l21.66-38.1l126.8-223l21.34,37.51l22.19,39.04l82.43,144.96H372.4L289.41,191.7
		c-0.18-0.31-0.51-0.51-0.87-0.51s-0.69,0.19-0.87,0.51l-126.3,222.12L140.09,377.22z"/>
	<path class="st1" d="M288.55,118.15l20.47,35.98l22.19,39.04l81.58,143.46h-39.81l-60.49-106.39l-22.2-39.04
		c-0.36-0.63-1.02-1.01-1.74-1.01c-0.72,0-1.38,0.39-1.74,1.01l-83.27,146.44l-21.95,38.6l-20.22,35.57l-20.12-34.59l21.37-37.6
		l105.47-185.49L288.55,118.15 M288.55,114.1l-22.2,39.04L160.88,338.63l-21.94,38.6l22.45,38.59l21.94-38.59l21.95-38.6
		l83.27-146.44l22.2,39.04l61.07,107.4h44.41l-83.28-146.45l-22.19-39.04L288.55,114.1L288.55,114.1z"/>
</g>
<g>
	<path class="st2" d="M229.44,376.23l20.81-36.6h165.97c0.36,0,0.69-0.19,0.86-0.5c0.18-0.31,0.18-0.69,0-1l-83.28-146.45
		l-22.19-39.04l-21.36-37.55h42.1l148.48,261.13H229.44z"/>
	<path class="st1" d="M331.78,116.1l21.62,38.03l105.47,185.49l20.25,35.61H231.16l19.68-34.6h165.39c0.71,0,1.37-0.38,1.73-0.99
		c0.36-0.62,0.36-1.38,0.01-1.99l-83.28-146.45l-22.19-39.04l-20.51-36.05H331.78 M332.95,114.1h-44.4l22.21,39.04l22.19,39.04
		l83.28,146.45H249.68l-21.95,38.6h254.84l-21.95-38.6L355.15,153.14L332.95,114.1L332.95,114.1z"/>
</g>
<g>
	<path class="st3" d="M163.1,414.82l125.44-220.61l21.05,37.02l-82.74,145.51c-0.18,0.31-0.17,0.69,0,1c0.18,0.31,0.51,0.5,0.86,0.5
		h253.1l-21.29,36.59H163.1z"/>
	<path class="st1" d="M288.55,196.24l19.9,34.99l-60.51,106.41l-21.95,38.6c-0.35,0.62-0.35,1.38,0.01,1.99
		c0.36,0.62,1.02,0.99,1.73,0.99h251.36l-20.12,34.59H164.82l20.24-35.6l21.95-38.6L288.55,196.24 M288.55,192.19l-83.27,146.44
		l-21.95,38.6l-21.94,38.59h298.73l22.45-38.59H227.73l21.95-38.6l61.07-107.4L288.55,192.19L288.55,192.19z"/>
</g>
</svg>
